<svg width="20" height="20" viewBox="0 0 20 20" fill="none" xmlns="http://www.w3.org/2000/svg">
<g clip-path="url(#clip0_108_686)">
<path d="M18.3335 0.833008H8.3335C8.11248 0.833008 7.90052 0.920805 7.74424 1.07709C7.58796 1.23337 7.50016 1.44533 7.50016 1.66634V5.83301H1.66683C1.44582 5.83301 1.23385 5.92081 1.07757 6.07709C0.921293 6.23337 0.833496 6.44533 0.833496 6.66634V18.333C0.833496 18.554 0.921293 18.766 1.07757 18.9223C1.23385 19.0785 1.44582 19.1663 1.66683 19.1663H18.3335C18.5545 19.1663 18.7665 19.0785 18.9228 18.9223C19.079 18.766 19.1668 18.554 19.1668 18.333V1.66634C19.1668 1.44533 19.079 1.23337 18.9228 1.07709C18.7665 0.920805 18.5545 0.833008 18.3335 0.833008ZM2.50016 7.49967H7.50016V17.4997H2.50016V7.49967ZM17.5002 17.4997H9.16683V2.49967H17.5002V17.4997ZM15.8335 5.83301H10.8335V4.16634H15.8335V5.83301ZM15.8335 9.16634H10.8335V7.49967H15.8335V9.16634ZM15.8335 12.4997H10.8335V10.833H15.8335V12.4997ZM15.8335 15.833H10.8335V14.1663H15.8335V15.833ZM4.16683 8.33301H5.8335V9.99967H4.16683V8.33301ZM4.16683 11.6663H5.8335V13.333H4.16683V11.6663ZM4.16683 14.9997H5.8335V16.6663H4.16683V14.9997Z" fill="#0067FF"/>
</g>
<defs>
<clipPath id="clip0_108_686">
<rect width="20" height="20" fill="white"/>
</clipPath>
</defs>
</svg>
