<svg width="32" height="32" viewBox="0 0 32 32" fill="none" xmlns="http://www.w3.org/2000/svg">
<path fill-rule="evenodd" clip-rule="evenodd" d="M14.666 3.66602C13.0092 3.66602 11.666 5.00916 11.666 6.66602V7.99935H9.66602V6.66602C9.66602 3.90459 11.9046 1.66602 14.666 1.66602H17.3327C20.0941 1.66602 22.3327 3.90459 22.3327 6.66602V7.99935H20.3327V6.66602C20.3327 5.00916 18.9895 3.66602 17.3327 3.66602H14.666Z" fill="#0067FF"/>
<path opacity="0.4" d="M2.66602 13.3324C2.66602 10.3868 5.05383 7.99902 7.99935 7.99902H23.9993C26.9449 7.99902 29.3327 10.3868 29.3327 13.3324V23.999C29.3327 26.9445 26.9449 29.3324 23.9993 29.3324H7.99935C5.05383 29.3324 2.66602 26.9445 2.66602 23.999V13.3324Z" fill="#0067FF"/>
<path fill-rule="evenodd" clip-rule="evenodd" d="M6.99902 13.333C6.99902 12.7807 7.44674 12.333 7.99902 12.333H23.999C24.5513 12.333 24.999 12.7807 24.999 13.333C24.999 13.8853 24.5513 14.333 23.999 14.333H7.99902C7.44674 14.333 6.99902 13.8853 6.99902 13.333Z" fill="#0067FF"/>
<path fill-rule="evenodd" clip-rule="evenodd" d="M6.99902 18.666C6.99902 18.1137 7.44674 17.666 7.99902 17.666H23.999C24.5513 17.666 24.999 18.1137 24.999 18.666C24.999 19.2183 24.5513 19.666 23.999 19.666H7.99902C7.44674 19.666 6.99902 19.2183 6.99902 18.666Z" fill="#0067FF"/>
<path fill-rule="evenodd" clip-rule="evenodd" d="M6.99902 23.999C6.99902 23.4467 7.44674 22.999 7.99902 22.999H23.999C24.5513 22.999 24.999 23.4467 24.999 23.999C24.999 24.5513 24.5513 24.999 23.999 24.999H7.99902C7.44674 24.999 6.99902 24.5513 6.99902 23.999Z" fill="#0067FF"/>
</svg>
