<svg width="46" height="45" viewBox="0 0 46 45" fill="none" xmlns="http://www.w3.org/2000/svg">
<rect width="46" height="44.4651" rx="22.2326" fill="#F0C274"/>
<path fill-rule="evenodd" clip-rule="evenodd" d="M14.814 12C13.6837 12 12.7674 12.9163 12.7674 14.0465V18.1395C12.7674 19.2698 13.6837 20.186 14.814 20.186H20.9535C22.0837 20.186 23 19.2698 23 18.1395V14.0465C23 12.9163 22.0837 12 20.9535 12H14.814ZM25.0465 24.2791C23.9163 24.2791 23 25.1953 23 26.3256V30.4186C23 31.5489 23.9163 32.4651 25.0465 32.4651H31.186C32.3163 32.4651 33.2326 31.5489 33.2326 30.4186V26.3256C33.2326 25.1953 32.3163 24.2791 31.186 24.2791H25.0465ZM31.8036 16.8605L31.0672 17.5969C30.7675 17.8966 30.7675 18.3825 31.0672 18.6822C31.3669 18.9819 31.8529 18.9819 32.1526 18.6822L33.4755 17.3592C34.1748 16.6599 34.1748 15.5261 33.4755 14.8268L32.1526 13.5038C31.8529 13.2041 31.3669 13.2041 31.0672 13.5038C30.7675 13.8036 30.7675 14.2895 31.0672 14.5892L31.8036 15.3256H27.093C26.6692 15.3256 26.3256 15.6692 26.3256 16.093C26.3256 16.5169 26.6692 16.8605 27.093 16.8605H31.8036ZM14.9328 29.8763L14.1964 29.1399H18.907C19.3308 29.1399 19.6744 28.7963 19.6744 28.3724C19.6744 27.9486 19.3308 27.605 18.907 27.605H14.1964L14.9328 26.8686C15.2325 26.5689 15.2325 26.0829 14.9328 25.7832C14.6331 25.4835 14.1471 25.4835 13.8474 25.7832L12.5245 27.1062C11.8252 27.8055 11.8252 28.9393 12.5245 29.6386L13.8474 30.9616C14.1471 31.2613 14.6331 31.2613 14.9328 30.9616C15.2325 30.6619 15.2325 30.176 14.9328 29.8763Z" fill="white"/>
</svg>
