<svg width="46" height="46" viewBox="0 0 46 46" fill="none" xmlns="http://www.w3.org/2000/svg">
<rect width="46" height="46" rx="23" fill="#D398E7"/>
<path fill-rule="evenodd" clip-rule="evenodd" d="M18.4167 13.834C16.3916 13.834 14.75 15.4756 14.75 17.5007V28.5007C14.75 30.5257 16.3916 32.1673 18.4167 32.1673H27.5833C29.6084 32.1673 31.25 30.5257 31.25 28.5007V17.5007C31.25 15.4756 29.6084 13.834 27.5833 13.834H18.4167ZM27.5833 19.1048C27.963 19.1048 28.2708 18.797 28.2708 18.4173C28.2708 18.0376 27.963 17.7298 27.5833 17.7298L18.4167 17.7298C18.037 17.7298 17.7292 18.0376 17.7292 18.4173C17.7292 18.797 18.037 19.1048 18.4167 19.1048L27.5833 19.1048ZM28.2708 23.0007C28.2708 23.3803 27.963 23.6882 27.5833 23.6882L18.4167 23.6882C18.037 23.6882 17.7292 23.3803 17.7292 23.0007C17.7292 22.621 18.037 22.3132 18.4167 22.3132L27.5833 22.3132C27.963 22.3132 28.2708 22.621 28.2708 23.0007ZM23 28.2715C23.3797 28.2715 23.6875 27.9637 23.6875 27.584C23.6875 27.2043 23.3797 26.8965 23 26.8965L18.4167 26.8965C18.037 26.8965 17.7292 27.2043 17.7292 27.584C17.7292 27.9637 18.037 28.2715 18.4167 28.2715L23 28.2715Z" fill="white"/>
</svg>
