<svg width="32" height="32" viewBox="0 0 32 32" fill="none" xmlns="http://www.w3.org/2000/svg">
<g opacity="0.4">
<path d="M22.333 14.8687V29.1885C24.5895 28.5805 27.0515 26.8906 28.3701 25.8935C28.9925 25.4229 29.333 24.6806 29.333 23.9004V11.0078C29.333 9.8699 27.9625 9.21003 27.018 9.84473C26.101 10.4609 24.9972 11.1246 23.8695 11.6213C23.8454 11.6936 23.8208 11.7656 23.7956 11.8374C23.4369 12.8593 22.9382 13.9062 22.333 14.8687Z" fill="#0067FF"/>
</g>
<path d="M11.666 15.9658V25.1131C13.3701 25.2554 14.6847 26.2555 15.9993 27.2555C17.3139 28.2556 18.6285 29.2557 20.3327 29.398V17.3019C19.3373 18.1986 18.0745 18.9246 16.6153 18.9246C15.3088 18.9246 14.1678 18.3358 13.2755 17.6232C12.6857 17.1523 12.1468 16.5828 11.666 15.9658Z" fill="#0067FF"/>
<g opacity="0.4">
<path d="M8.78523 8.59668C6.79327 9.34366 4.77742 10.7377 3.62888 11.6061C3.00652 12.0767 2.66602 12.819 2.66602 13.5992V26.4918C2.66602 27.6297 4.03655 28.2896 4.98104 27.6549C6.31463 26.7587 8.04346 25.7621 9.66602 25.3249V12.4495C9.14375 11.1509 8.81161 9.80057 8.78523 8.59668Z" fill="#0067FF"/>
</g>
<path fill-rule="evenodd" clip-rule="evenodd" d="M22.0899 11.2395C22.4392 10.2442 22.6398 9.26781 22.6398 8.44366C22.6398 5.24952 19.9425 2.66016 16.6153 2.66016C13.5288 2.66016 10.9844 4.88837 10.6324 7.76058C10.6049 7.9846 10.5908 8.21255 10.5908 8.44366C10.5908 11.6378 13.6031 17.1189 16.6153 17.1189C18.8503 17.1189 21.0853 14.1014 22.0899 11.2395ZM16.6156 9.88943C17.6138 9.88943 18.423 9.08025 18.423 8.08208C18.423 7.08391 17.6138 6.27474 16.6156 6.27474C15.6174 6.27474 14.8083 7.08391 14.8083 8.08208C14.8083 9.08025 15.6174 9.88943 16.6156 9.88943Z" fill="#0067FF"/>
</svg>
