<svg width="24" height="24" viewBox="0 0 24 24" fill="none" xmlns="http://www.w3.org/2000/svg">
<path fill-rule="evenodd" clip-rule="evenodd" d="M5.37819 4.94296L10.376 2.72171C11.4103 2.26204 12.5909 2.26203 13.6251 2.72171L18.6031 4.93415C20.0588 5.58113 21.0144 7.03525 20.9124 8.62498C20.5211 14.7228 18.7778 17.4793 14.0652 20.6773C12.8215 21.5213 11.181 21.5192 9.93637 20.6766C5.23825 17.496 3.4302 14.7778 3.07057 8.6036C2.97858 7.0243 3.93257 5.58546 5.37819 4.94296ZM15.565 9.49356C15.8378 9.18183 15.8062 8.70801 15.4944 8.43525C15.1827 8.16249 14.7089 8.19408 14.4361 8.5058L11.5662 11.7857C11.4781 11.8864 11.3264 11.8999 11.2219 11.8163L9.46909 10.414C9.14564 10.1553 8.67367 10.2077 8.41492 10.5312C8.15616 10.8546 8.2086 11.3266 8.53205 11.5853L10.2849 12.9876C11.0162 13.5726 12.0784 13.4782 12.6951 12.7735L15.565 9.49356Z" fill="white"/>
</svg>
