<svg width="20" height="20" viewBox="0 0 20 20" fill="none" xmlns="http://www.w3.org/2000/svg">
<g clip-path="url(#clip0_108_692)">
<path d="M18.3335 9.16634H14.1668V3.33301C14.1668 3.11199 14.079 2.90003 13.9228 2.74375C13.7665 2.58747 13.5545 2.49967 13.3335 2.49967H10.8335V1.66634C10.8335 1.44533 10.7457 1.23337 10.5894 1.07709C10.4331 0.920805 10.2212 0.833008 10.0002 0.833008C9.77915 0.833008 9.56719 0.920805 9.41091 1.07709C9.25463 1.23337 9.16683 1.44533 9.16683 1.66634V2.49967H6.66683C6.44582 2.49967 6.23385 2.58747 6.07757 2.74375C5.92129 2.90003 5.8335 3.11199 5.8335 3.33301V9.16634H1.66683C1.44582 9.16634 1.23385 9.25414 1.07757 9.41042C0.921293 9.5667 0.833496 9.77866 0.833496 9.99967V18.333C0.833496 18.554 0.921293 18.766 1.07757 18.9223C1.23385 19.0785 1.44582 19.1663 1.66683 19.1663H18.3335C18.5545 19.1663 18.7665 19.0785 18.9228 18.9223C19.079 18.766 19.1668 18.554 19.1668 18.333V9.99967C19.1668 9.77866 19.079 9.5667 18.9228 9.41042C18.7665 9.25414 18.5545 9.16634 18.3335 9.16634ZM2.50016 10.833H5.8335V17.4997H2.50016V10.833ZM7.50016 9.99967V4.16634H12.5002V17.4997H7.50016V9.99967ZM17.5002 17.4997H14.1668V10.833H17.5002V17.4997ZM8.3335 4.99967H11.6668V6.66634H8.3335V4.99967ZM8.3335 8.33301H11.6668V9.99967H8.3335V8.33301ZM8.3335 11.6663H11.6668V13.333H8.3335V11.6663ZM3.3335 11.6663H5.00016V13.333H3.3335V11.6663ZM3.3335 14.9997H5.00016V16.6663H3.3335V14.9997ZM16.6668 13.333H15.0002V11.6663H16.6668V13.333ZM16.6668 16.6663H15.0002V14.9997H16.6668V16.6663ZM8.3335 14.9997H11.6668V16.6663H8.3335V14.9997Z" fill="#0067FF"/>
</g>
<defs>
<clipPath id="clip0_108_692">
<rect width="20" height="20" fill="white"/>
</clipPath>
</defs>
</svg>
