<svg width="149" height="19" viewBox="0 0 149 19" fill="none" xmlns="http://www.w3.org/2000/svg">
<path d="M6.64703 18.6211C5.47903 18.6211 4.42303 18.4211 3.47903 18.0211C2.55103 17.6211 1.81503 17.0451 1.27103 16.2931C0.727031 15.5411 0.447031 14.6531 0.431031 13.6291H4.03103C4.07903 14.3171 4.31903 14.8611 4.75103 15.2611C5.19903 15.6611 5.80703 15.8611 6.57503 15.8611C7.35903 15.8611 7.97503 15.6771 8.42303 15.3091C8.87103 14.9251 9.09503 14.4291 9.09503 13.8211C9.09503 13.3251 8.94303 12.9171 8.63903 12.5971C8.33503 12.2771 7.95103 12.0291 7.48703 11.8531C7.03903 11.6611 6.41503 11.4531 5.61503 11.2291C4.52703 10.9091 3.63903 10.5971 2.95103 10.2931C2.27903 9.97312 1.69503 9.50112 1.19903 8.87712C0.719031 8.23712 0.479031 7.38912 0.479031 6.33313C0.479031 5.34112 0.727031 4.47712 1.22303 3.74112C1.71903 3.00512 2.41503 2.44512 3.31103 2.06112C4.20703 1.66112 5.23103 1.46112 6.38303 1.46112C8.11103 1.46112 9.51103 1.88512 10.583 2.73312C11.671 3.56512 12.271 4.73312 12.383 6.23712H8.68703C8.65503 5.66112 8.40703 5.18912 7.94303 4.82112C7.49503 4.43712 6.89503 4.24512 6.14303 4.24512C5.48703 4.24512 4.95903 4.41312 4.55903 4.74912C4.17503 5.08512 3.98303 5.57312 3.98303 6.21312C3.98303 6.66112 4.12703 7.03712 4.41503 7.34112C4.71903 7.62912 5.08703 7.86912 5.51903 8.06112C5.96703 8.23712 6.59103 8.44512 7.39103 8.68512C8.47903 9.00512 9.36703 9.32512 10.055 9.64512C10.743 9.96512 11.335 10.4451 11.831 11.0851C12.327 11.7251 12.575 12.5651 12.575 13.6051C12.575 14.5011 12.343 15.3331 11.879 16.1011C11.415 16.8691 10.735 17.4851 9.83903 17.9491C8.94303 18.3971 7.87903 18.6211 6.64703 18.6211ZM32 4.96512C33.632 4.96512 34.944 5.46912 35.936 6.47712C36.944 7.46912 37.448 8.86112 37.448 10.6531V18.4531H34.088V11.1091C34.088 10.0691 33.824 9.27712 33.296 8.73312C32.768 8.17312 32.048 7.89312 31.136 7.89312C30.224 7.89312 29.496 8.17312 28.952 8.73312C28.424 9.27712 28.16 10.0691 28.16 11.1091V18.4531H24.8V11.1091C24.8 10.0691 24.536 9.27712 24.008 8.73312C23.48 8.17312 22.76 7.89312 21.848 7.89312C20.92 7.89312 20.184 8.17312 19.64 8.73312C19.112 9.27712 18.848 10.0691 18.848 11.1091V18.4531H15.488V5.15712H18.848V6.76512C19.28 6.20512 19.832 5.76512 20.504 5.44512C21.192 5.12512 21.944 4.96512 22.76 4.96512C23.8 4.96512 24.728 5.18912 25.544 5.63712C26.36 6.06912 26.992 6.69312 27.44 7.50912C27.872 6.74112 28.496 6.12512 29.312 5.66112C30.144 5.19712 31.04 4.96512 32 4.96512ZM39.7725 11.7571C39.7725 10.4131 40.0365 9.22112 40.5645 8.18112C41.1085 7.14112 41.8365 6.34112 42.7485 5.78113C43.6765 5.22112 44.7085 4.94112 45.8445 4.94112C46.8365 4.94112 47.7005 5.14112 48.4365 5.54112C49.1885 5.94112 49.7885 6.44512 50.2365 7.05312V5.15712H53.6205V18.4531H50.2365V16.5091C49.8045 17.1331 49.2045 17.6531 48.4365 18.0691C47.6845 18.4691 46.8125 18.6691 45.8205 18.6691C44.7005 18.6691 43.6765 18.3811 42.7485 17.8051C41.8365 17.2291 41.1085 16.4211 40.5645 15.3811C40.0365 14.3251 39.7725 13.1171 39.7725 11.7571ZM50.2365 11.8051C50.2365 10.9891 50.0765 10.2931 49.7565 9.71712C49.4365 9.12512 49.0045 8.67712 48.4605 8.37312C47.9165 8.05312 47.3325 7.89312 46.7085 7.89312C46.0845 7.89312 45.5085 8.04512 44.9805 8.34912C44.4525 8.65312 44.0205 9.10112 43.6845 9.69312C43.3645 10.2691 43.2045 10.9571 43.2045 11.7571C43.2045 12.5571 43.3645 13.2611 43.6845 13.8691C44.0205 14.4611 44.4525 14.9171 44.9805 15.2371C45.5245 15.5571 46.1005 15.7171 46.7085 15.7171C47.3325 15.7171 47.9165 15.5651 48.4605 15.2611C49.0045 14.9411 49.4365 14.4931 49.7565 13.9171C50.0765 13.3251 50.2365 12.6211 50.2365 11.8051ZM60.2621 7.22112C60.6941 6.51712 61.2541 5.96512 61.9421 5.56512C62.6461 5.16512 63.4461 4.96512 64.3421 4.96512V8.49312H63.4541C62.3981 8.49312 61.5981 8.74112 61.0541 9.23712C60.5261 9.73312 60.2621 10.5971 60.2621 11.8291V18.4531H56.9021V5.15712H60.2621V7.22112ZM70.5172 7.91712V14.3491C70.5172 14.7971 70.6212 15.1251 70.8292 15.3331C71.0532 15.5251 71.4212 15.6211 71.9332 15.6211H73.4932V18.4531H71.3812C68.5492 18.4531 67.1332 17.0771 67.1332 14.3251V7.91712H65.5492V5.15712H67.1332V1.86912H70.5172V5.15712H73.4932V7.91712H70.5172Z" fill="black"/>
<path d="M94.3419 5.15712L90.4539 18.4531H86.8299L84.4059 9.16512L81.9819 18.4531H78.3339L74.4219 5.15712H77.8299L80.1819 15.2851L82.7259 5.15712H86.2779L88.7739 15.2611L91.1259 5.15712H94.3419ZM102.064 18.6691C100.784 18.6691 99.6319 18.3891 98.6079 17.8291C97.5839 17.2531 96.7759 16.4451 96.1839 15.4051C95.6079 14.3651 95.3199 13.1651 95.3199 11.8051C95.3199 10.4451 95.6159 9.24512 96.2079 8.20512C96.8159 7.16512 97.6399 6.36512 98.6799 5.80512C99.7199 5.22912 100.88 4.94112 102.16 4.94112C103.44 4.94112 104.6 5.22912 105.64 5.80512C106.68 6.36512 107.496 7.16512 108.088 8.20512C108.696 9.24512 109 10.4451 109 11.8051C109 13.1651 108.688 14.3651 108.064 15.4051C107.456 16.4451 106.624 17.2531 105.568 17.8291C104.528 18.3891 103.36 18.6691 102.064 18.6691ZM102.064 15.7411C102.672 15.7411 103.24 15.5971 103.768 15.3091C104.312 15.0051 104.744 14.5571 105.064 13.9651C105.384 13.3731 105.544 12.6531 105.544 11.8051C105.544 10.5411 105.208 9.57312 104.536 8.90112C103.88 8.21312 103.072 7.86912 102.112 7.86912C101.152 7.86912 100.344 8.21312 99.6879 8.90112C99.0479 9.57312 98.7279 10.5411 98.7279 11.8051C98.7279 13.0691 99.0399 14.0451 99.6639 14.7331C100.304 15.4051 101.104 15.7411 102.064 15.7411ZM114.825 7.22112C115.257 6.51712 115.817 5.96512 116.505 5.56512C117.209 5.16512 118.009 4.96512 118.905 4.96512V8.49312H118.017C116.961 8.49312 116.161 8.74112 115.617 9.23712C115.089 9.73312 114.825 10.5971 114.825 11.8291V18.4531H111.465V5.15712H114.825V7.22112ZM129.04 18.4531L124.528 12.7891V18.4531H121.168V0.693125H124.528V10.7971L128.992 5.15712H133.36L127.504 11.8291L133.408 18.4531H129.04ZM134.319 11.7571C134.319 10.4131 134.583 9.22112 135.111 8.18112C135.655 7.14112 136.383 6.34112 137.295 5.78113C138.223 5.22112 139.255 4.94112 140.391 4.94112C141.383 4.94112 142.247 5.14112 142.983 5.54112C143.735 5.94112 144.335 6.44512 144.783 7.05312V5.15712H148.167V18.4531H144.783V16.5091C144.351 17.1331 143.751 17.6531 142.983 18.0691C142.231 18.4691 141.359 18.6691 140.367 18.6691C139.247 18.6691 138.223 18.3811 137.295 17.8051C136.383 17.2291 135.655 16.4211 135.111 15.3811C134.583 14.3251 134.319 13.1171 134.319 11.7571ZM144.783 11.8051C144.783 10.9891 144.623 10.2931 144.303 9.71712C143.983 9.12512 143.551 8.67712 143.007 8.37312C142.463 8.05312 141.879 7.89312 141.255 7.89312C140.631 7.89312 140.055 8.04512 139.527 8.34912C138.999 8.65312 138.567 9.10112 138.231 9.69312C137.911 10.2691 137.751 10.9571 137.751 11.7571C137.751 12.5571 137.911 13.2611 138.231 13.8691C138.567 14.4611 138.999 14.9171 139.527 15.2371C140.071 15.5571 140.647 15.7171 141.255 15.7171C141.879 15.7171 142.463 15.5651 143.007 15.2611C143.551 14.9411 143.983 14.4931 144.303 13.9171C144.623 13.3251 144.783 12.6211 144.783 11.8051Z" fill="#0067FF"/>
</svg>
