<svg width="198" height="25" viewBox="0 0 198 25" fill="none" xmlns="http://www.w3.org/2000/svg">
<path d="M9.02938 24.724C7.47204 24.724 6.06404 24.4573 4.80538 23.924C3.56804 23.3907 2.58671 22.6227 1.86138 21.62C1.13604 20.6173 0.762708 19.4333 0.741375 18.068H5.54138C5.60538 18.9853 5.92538 19.7107 6.50138 20.244C7.09871 20.7773 7.90938 21.044 8.93338 21.044C9.97871 21.044 10.8 20.7987 11.3974 20.308C11.9947 19.796 12.2934 19.1347 12.2934 18.324C12.2934 17.6627 12.0907 17.1187 11.6854 16.692C11.28 16.2653 10.768 15.9347 10.1494 15.7C9.55204 15.444 8.72004 15.1667 7.65338 14.868C6.20271 14.4413 5.01871 14.0253 4.10138 13.62C3.20538 13.1933 2.42671 12.564 1.76538 11.732C1.12538 10.8787 0.805375 9.748 0.805375 8.34C0.805375 7.01733 1.13604 5.86533 1.79738 4.884C2.45871 3.90267 3.38671 3.156 4.58138 2.644C5.77604 2.11067 7.14138 1.844 8.67738 1.844C10.9814 1.844 12.848 2.40933 14.2774 3.54C15.728 4.64933 16.528 6.20667 16.6774 8.212H11.7494C11.7067 7.444 11.376 6.81467 10.7574 6.324C10.16 5.812 9.36004 5.556 8.35738 5.556C7.48271 5.556 6.77871 5.78 6.24538 6.228C5.73338 6.676 5.47738 7.32667 5.47738 8.18C5.47738 8.77733 5.66938 9.27867 6.05338 9.684C6.45871 10.068 6.94938 10.388 7.52538 10.644C8.12271 10.8787 8.95471 11.156 10.0214 11.476C11.472 11.9027 12.656 12.3293 13.5734 12.756C14.4907 13.1827 15.28 13.8227 15.9414 14.676C16.6027 15.5293 16.9334 16.6493 16.9334 18.036C16.9334 19.2307 16.624 20.34 16.0054 21.364C15.3867 22.388 14.48 23.2093 13.2854 23.828C12.0907 24.4253 10.672 24.724 9.02938 24.724ZM42.8334 6.516C45.0094 6.516 46.7587 7.188 48.0814 8.532C49.4254 9.85467 50.0974 11.7107 50.0974 14.1V24.5H45.6174V14.708C45.6174 13.3213 45.2654 12.2653 44.5614 11.54C43.8574 10.7933 42.8974 10.42 41.6814 10.42C40.4654 10.42 39.4947 10.7933 38.7694 11.54C38.0654 12.2653 37.7134 13.3213 37.7134 14.708V24.5H33.2334V14.708C33.2334 13.3213 32.8814 12.2653 32.1774 11.54C31.4734 10.7933 30.5134 10.42 29.2974 10.42C28.06 10.42 27.0787 10.7933 26.3534 11.54C25.6494 12.2653 25.2974 13.3213 25.2974 14.708V24.5H20.8174V6.772H25.2974V8.916C25.8734 8.16933 26.6094 7.58267 27.5054 7.156C28.4227 6.72933 29.4254 6.516 30.5134 6.516C31.9 6.516 33.1374 6.81467 34.2254 7.412C35.3134 7.988 36.156 8.82 36.7534 9.908C37.3294 8.884 38.1614 8.06267 39.2494 7.444C40.3587 6.82533 41.5534 6.516 42.8334 6.516ZM53.1966 15.572C53.1966 13.78 53.5486 12.1907 54.2526 10.804C54.978 9.41733 55.9486 8.35067 57.1646 7.604C58.402 6.85733 59.778 6.484 61.2926 6.484C62.6153 6.484 63.7673 6.75067 64.7486 7.284C65.7513 7.81733 66.5513 8.48933 67.1486 9.3V6.772H71.6606V24.5H67.1486V21.908C66.5726 22.74 65.7726 23.4333 64.7486 23.988C63.746 24.5213 62.5833 24.788 61.2606 24.788C59.7673 24.788 58.402 24.404 57.1646 23.636C55.9486 22.868 54.978 21.7907 54.2526 20.404C53.5486 18.996 53.1966 17.3853 53.1966 15.572ZM67.1486 15.636C67.1486 14.548 66.9353 13.62 66.5086 12.852C66.082 12.0627 65.506 11.4653 64.7806 11.06C64.0553 10.6333 63.2766 10.42 62.4446 10.42C61.6126 10.42 60.8446 10.6227 60.1406 11.028C59.4366 11.4333 58.8606 12.0307 58.4126 12.82C57.986 13.588 57.7726 14.5053 57.7726 15.572C57.7726 16.6387 57.986 17.5773 58.4126 18.388C58.8606 19.1773 59.4366 19.7853 60.1406 20.212C60.866 20.6387 61.634 20.852 62.4446 20.852C63.2766 20.852 64.0553 20.6493 64.7806 20.244C65.506 19.8173 66.082 19.22 66.5086 18.452C66.9353 17.6627 67.1486 16.724 67.1486 15.636ZM80.5161 9.524C81.0921 8.58533 81.8388 7.84933 82.7561 7.316C83.6948 6.78267 84.7615 6.516 85.9561 6.516V11.22H84.7721C83.3641 11.22 82.2975 11.5507 81.5721 12.212C80.8681 12.8733 80.5161 14.0253 80.5161 15.668V24.5H76.0361V6.772H80.5161V9.524ZM94.1896 10.452V19.028C94.1896 19.6253 94.3283 20.0627 94.6056 20.34C94.9043 20.596 95.395 20.724 96.0776 20.724H98.1576V24.5H95.3416C91.5656 24.5 89.6776 22.6653 89.6776 18.996V10.452H87.5656V6.772H89.6776V2.388H94.1896V6.772H98.1576V10.452H94.1896Z" fill="#D8D8D8"/>
<path d="M125.956 6.772L120.772 24.5H115.94L112.708 12.116L109.476 24.5H104.612L99.3959 6.772H103.94L107.076 20.276L110.468 6.772H115.204L118.532 20.244L121.668 6.772H125.956ZM136.252 24.788C134.545 24.788 133.009 24.4147 131.644 23.668C130.279 22.9 129.201 21.8227 128.412 20.436C127.644 19.0493 127.26 17.4493 127.26 15.636C127.26 13.8227 127.655 12.2227 128.444 10.836C129.255 9.44933 130.353 8.38267 131.74 7.636C133.127 6.868 134.673 6.484 136.38 6.484C138.087 6.484 139.633 6.868 141.02 7.636C142.407 8.38267 143.495 9.44933 144.284 10.836C145.095 12.2227 145.5 13.8227 145.5 15.636C145.5 17.4493 145.084 19.0493 144.252 20.436C143.441 21.8227 142.332 22.9 140.924 23.668C139.537 24.4147 137.98 24.788 136.252 24.788ZM136.252 20.884C137.063 20.884 137.82 20.692 138.524 20.308C139.249 19.9027 139.825 19.3053 140.252 18.516C140.679 17.7267 140.892 16.7667 140.892 15.636C140.892 13.9507 140.444 12.66 139.548 11.764C138.673 10.8467 137.596 10.388 136.316 10.388C135.036 10.388 133.959 10.8467 133.084 11.764C132.231 12.66 131.804 13.9507 131.804 15.636C131.804 17.3213 132.22 18.6227 133.052 19.54C133.905 20.436 134.972 20.884 136.252 20.884ZM153.266 9.524C153.842 8.58533 154.589 7.84933 155.506 7.316C156.445 6.78267 157.511 6.516 158.706 6.516V11.22H157.522C156.114 11.22 155.047 11.5507 154.322 12.212C153.618 12.8733 153.266 14.0253 153.266 15.668V24.5H148.786V6.772H153.266V9.524ZM172.22 24.5L166.204 16.948V24.5H161.724V0.82H166.204V14.292L172.156 6.772H177.98L170.172 15.668L178.044 24.5H172.22ZM179.259 15.572C179.259 13.78 179.611 12.1907 180.315 10.804C181.04 9.41733 182.011 8.35067 183.227 7.604C184.464 6.85733 185.84 6.484 187.355 6.484C188.678 6.484 189.83 6.75067 190.811 7.284C191.814 7.81733 192.614 8.48933 193.211 9.3V6.772H197.723V24.5H193.211V21.908C192.635 22.74 191.835 23.4333 190.811 23.988C189.808 24.5213 188.646 24.788 187.323 24.788C185.83 24.788 184.464 24.404 183.227 23.636C182.011 22.868 181.04 21.7907 180.315 20.404C179.611 18.996 179.259 17.3853 179.259 15.572ZM193.211 15.636C193.211 14.548 192.998 13.62 192.571 12.852C192.144 12.0627 191.568 11.4653 190.843 11.06C190.118 10.6333 189.339 10.42 188.507 10.42C187.675 10.42 186.907 10.6227 186.203 11.028C185.499 11.4333 184.923 12.0307 184.475 12.82C184.048 13.588 183.835 14.5053 183.835 15.572C183.835 16.6387 184.048 17.5773 184.475 18.388C184.923 19.1773 185.499 19.7853 186.203 20.212C186.928 20.6387 187.696 20.852 188.507 20.852C189.339 20.852 190.118 20.6493 190.843 20.244C191.568 19.8173 192.144 19.22 192.571 18.452C192.998 17.6627 193.211 16.724 193.211 15.636Z" fill="#0067FF"/>
</svg>
