<svg width="32" height="32" viewBox="0 0 32 32" fill="none" xmlns="http://www.w3.org/2000/svg">
<path opacity="0.4" d="M29.333 7.99902H7.99967C5.05416 7.99902 2.66634 10.3868 2.66634 13.3324V23.999C2.66634 26.9445 5.05416 29.3324 7.99967 29.3324H23.9997C26.9452 29.3324 29.333 26.9445 29.333 23.999V7.99902Z" fill="#0067FF"/>
<path d="M29.3327 7.99935C29.3327 5.05383 26.9449 2.66602 23.9994 2.66602H15.9993C13.0538 2.66602 10.666 5.05383 10.666 7.99935H29.3327Z" fill="#0067FF"/>
<path d="M2.66602 15.999L2.66602 21.3324L7.99935 21.3324C9.47211 21.3324 10.666 20.1384 10.666 18.6657C10.666 17.1929 9.47211 15.999 7.99935 15.999L2.66602 15.999Z" fill="#0067FF"/>
<path fill-rule="evenodd" clip-rule="evenodd" d="M25.6663 27.4711L24.7068 26.5115C24.3163 26.121 23.6831 26.121 23.2926 26.5115C22.902 26.902 22.902 27.5352 23.2926 27.9257L25.0164 29.6496C25.9276 30.5608 27.405 30.5608 28.3163 29.6496L30.0401 27.9257C30.4306 27.5352 30.4306 26.902 30.0401 26.5115C29.6496 26.121 29.0164 26.121 28.6259 26.5115L27.6663 27.4711V21.333C27.6663 20.7807 27.2186 20.333 26.6663 20.333C26.1141 20.333 25.6663 20.7807 25.6663 21.333V27.4711Z" fill="#0067FF"/>
</svg>
